<svg width="203" height="64" fill="none" xmlns="http://www.w3.org/2000/svg"><path d="M98.998 4.81h5.214v16.606c0 2.927-.881 5.173-2.709 6.67a11.534 11.534 0 01-13.814 0c-1.829-1.497-2.709-3.743-2.709-6.67V4.81h5.214v16.606c0 1.702.407 2.859 1.22 3.607a5.266 5.266 0 006.5 0c.813-.748 1.151-1.973 1.151-3.607L98.998 4.81zm16.658 10.14c-1.287-.067-2.573.613-3.183 1.77v13.271h-5.011V11.276h4.673l.135 2.11c1.287-1.634 3.318-2.587 5.35-2.519 1.557-.068 3.115.477 4.266 1.566 1.083 1.089 1.625 2.926 1.625 5.58v11.91H118.5V18.082c0-1.226-.271-2.042-.745-2.45a2.809 2.809 0 00-2.099-.681zm11.241-8.506c0-.68.271-1.361.745-1.838 1.151-.953 2.912-.953 4.063 0 .474.477.812 1.157.745 1.838 0 .68-.271 1.36-.745 1.837-1.151.953-2.912.953-4.063 0a2.637 2.637 0 01-.745-1.837zm5.35 4.832V29.99h-5.011V11.276h5.011zm12.934 18.647c-.948.34-1.964.477-2.98.477-1.422.068-2.776-.409-3.928-1.293-.948-.817-1.422-2.246-1.422-4.288v-9.868h-2.776v-3.675h2.776V6.648h5.011v4.628h3.183v3.675h-3.183v9.392c-.067.544.068 1.157.474 1.565.407.272.948.408 1.423.408.27 0 .541 0 .812-.068.271 0 .474-.068.61-.068v3.743zm18.012-2.926c-.745.953-1.625 1.77-2.708 2.314-1.422.748-2.98 1.089-4.537 1.089-2.912 0-5.215-.885-6.84-2.654-1.625-1.77-2.505-4.016-2.438-6.398v-.68c-.135-2.518.745-5.037 2.37-6.942 1.626-1.838 3.928-2.859 6.366-2.722 2.709 0 4.74.816 6.094 2.518 1.355 1.701 2.1 3.947 2.1 6.67V22.3h-11.851c.136 1.089.61 2.178 1.422 2.927.813.748 1.964 1.156 3.115 1.088 1.761.069 3.454-.68 4.469-2.11l2.438 2.791zm-7.855-12.046c-.948-.068-1.828.34-2.438 1.089a5.992 5.992 0 00-1.151 2.79h6.907v-.408c0-.885-.271-1.77-.812-2.518-.61-.68-1.558-1.021-2.506-.953zm22.144 15.108l-.271-1.973c-.542.68-1.219 1.293-2.032 1.701-.812.409-1.76.613-2.708.613-2.167.068-4.199-.953-5.35-2.723-1.354-2.041-2.032-4.423-1.896-6.805v-.34c0-2.859.609-5.173 1.896-6.942 1.219-1.77 3.25-2.723 5.417-2.655a5.387 5.387 0 014.47 2.042V3.45h5.011v26.61h-4.537zm-7.314-9.187c-.068 1.293.203 2.654.813 3.811.542 1.02 1.625 1.701 2.776 1.565a3.452 3.452 0 003.251-1.905v-7.419c-.542-1.224-1.829-2.041-3.251-1.973-1.151-.068-2.234.544-2.776 1.633a7.96 7.96 0 00-.813 3.948v.34zM105.566 34.96v25.249h-5.146L90.33 43.535v16.674h-5.215v-25.25h5.215l10.09 16.675V34.96h5.146zm14.559 25.249c-.271-.545-.406-1.09-.474-1.702a5.588 5.588 0 01-1.896 1.43 6.674 6.674 0 01-2.844.612c-1.625.068-3.25-.544-4.469-1.565-1.219-1.021-1.829-2.45-1.829-4.016-.067-1.77.745-3.539 2.167-4.56 1.422-1.088 3.589-1.633 6.433-1.633h2.235v-1.089c.068-.748-.203-1.497-.677-2.11-.542-.544-1.287-.816-2.099-.748-1.761 0-2.641.748-2.641 2.246h-5.011c0-1.634.812-3.199 2.167-4.22a9.3 9.3 0 015.756-1.77c1.896-.067 3.792.477 5.349 1.634 1.422 1.09 2.099 2.722 2.099 4.968v7.895c0 .885.068 1.701.204 2.586.135.613.27 1.157.541 1.701v.34h-5.011zm-4.13-3.471c.744 0 1.489-.204 2.166-.544.542-.273.948-.75 1.287-1.226v-3.266h-2.031c-1.016-.068-2.1.204-2.912.816-.61.545-.948 1.294-.948 2.042 0 .613.203 1.157.609 1.565a3.109 3.109 0 001.829.613zm21.195 3.335c-.474.136-.88.272-1.354.34-.542.068-1.084.136-1.626.136-1.422.068-2.776-.408-3.927-1.293-.948-.817-1.422-2.246-1.422-4.288V45.1h-2.777v-3.675h2.777v-4.628h5.011v4.628h3.183V45.1h-3.183v9.392c-.068.544.068 1.157.474 1.565.406.273.948.409 1.422.409.271 0 .542 0 .813-.068.27 0 .474-.068.609-.068v3.743zm2.099-23.48c0-.68.271-1.361.745-1.838 1.151-.952 2.912-.952 4.063 0 1.016 1.021 1.016 2.655 0 3.744-1.151.952-2.912.952-4.063 0-.542-.545-.813-1.225-.745-1.906zm5.282 4.832V60.21h-5.011V41.425h5.011zm2.844 9.596v-.34c-.067-2.45.745-4.9 2.303-6.806 1.557-1.837 3.724-2.722 6.5-2.722 2.845 0 5.012.885 6.569 2.722 1.557 1.906 2.37 4.356 2.302 6.806v.34c.068 2.45-.745 4.9-2.302 6.806-1.557 1.837-3.724 2.722-6.501 2.722-2.844 0-5.011-.885-6.568-2.722-1.558-1.906-2.37-4.356-2.303-6.806zm5.011-.408v.34c-.067 1.361.271 2.722.881 3.88 1.083 1.633 3.318 2.11 4.943 1.02a3.643 3.643 0 001.016-1.02c.609-1.226.88-2.519.88-3.88v-.34c.068-1.361-.271-2.654-.88-3.88-.61-1.088-1.761-1.769-2.98-1.633a3.187 3.187 0 00-2.979 1.633c-.61 1.226-.948 2.587-.881 3.88zm23.363-5.445c-1.287-.068-2.574.613-3.183 1.838v13.203h-5.011V41.425h4.672l.204 2.178c1.286-1.634 3.25-2.586 5.349-2.518 1.625-.068 3.183.476 4.334 1.565 1.084 1.089 1.625 2.927 1.625 5.58v11.98h-5.011V48.23c0-1.225-.271-2.042-.745-2.45a3.394 3.394 0 00-2.234-.613zm21.398 9.8c0-.544-.271-1.089-.745-1.36a8.494 8.494 0 00-3.047-1.022c-1.693-.34-3.318-.952-4.74-1.905a4.305 4.305 0 01-1.896-3.743c0-1.566.745-3.063 1.964-4.084 1.354-1.157 3.115-1.77 5.485-1.77s4.334.545 5.756 1.702c1.354 1.021 2.099 2.654 2.099 4.356h-5.011c0-.68-.203-1.293-.677-1.77-.61-.476-1.355-.748-2.167-.68-.677-.068-1.355.136-1.964.544a1.92 1.92 0 00-.677 1.43c0 .544.271 1.088.745 1.36.812.477 1.76.75 2.708.885 1.761.34 3.454.953 5.011 1.838 1.355.817 2.032 2.178 2.032 4.015 0 1.634-.813 3.13-2.099 4.084-1.422 1.089-3.318 1.633-5.756 1.633-2.574 0-4.605-.68-5.959-2.042a5.944 5.944 0 01-2.1-4.287h4.741c0 .816.406 1.633 1.083 2.11.677.408 1.49.68 2.37.612 1.829.136 2.844-.544 2.844-1.906z" fill="#000"/><path d="M58.503 57.556a9.56 9.56 0 01-6.298.749 21.814 21.814 0 01-4.198-1.43l-2.98-1.225a14.494 14.494 0 00-7.99-.204h-.271a13.335 13.335 0 00-7.991.204c-1.016.34-1.964.817-2.98 1.225-1.354.613-2.776 1.157-4.198 1.498-2.1.476-4.334.204-6.298-.749l-.27-.136c-.068 0-.068 0-.068.068 1.286 1.361 2.98 2.314 4.74 2.79 1.219.34 2.505.409 3.724.273 1.896-.273 3.725-.953 5.282-2.042l2.844-1.906c1.084-.68 2.37-.953 3.59-.68.676.068.135.408.067.476a27.063 27.063 0 00-4.808 2.995c-1.016.748-2.844 2.518-2.844 2.518l1.354 1.157 1.49-1.634a26.898 26.898 0 016.23-4.832.506.506 0 01.61 0 26.899 26.899 0 016.23 4.832l1.49 1.634 1.354-1.157-2.845-2.518a27.067 27.067 0 00-4.808-2.995c-.135-.068-.609-.408.068-.476 1.22-.273 2.506 0 3.59.68l2.843 1.906c1.558 1.089 3.386 1.77 5.282 2.041 1.22.137 2.506.069 3.725-.272 1.76-.544 3.453-1.497 4.74-2.79 0 0-.068-.068-.136-.068l-.27.068zm6.636-5.921a9.524 9.524 0 01-2.844 1.497c-1.422.409-2.98.68-4.47.68-1.963.069-3.86.205-5.823.477-.136 0-.203 0-.136-.068 1.693-.68 3.048-2.042 3.792-3.675l1.897-3.88v-.135c-.136.068-2.032 1.701-2.912 2.518l-3.183 3.13a12.342 12.342 0 01-4.943 2.587h-.068l-.068.068 3.657.884c1.558.477 3.183.749 4.808.885a11.262 11.262 0 0010.428-4.9c0-.068-.067-.068-.135-.068zm5.959-9.12a14.3 14.3 0 01-3.386 2.995c-1.083.748-2.234 1.361-3.453 1.905-1.558.613-2.98 1.498-4.267 2.519l-.27.204c-.068 0-.068 0-.068-.068s2.031-2.11 2.64-6.398c.069-1.565.34-3.062.678-4.56v-.136a19.868 19.868 0 00-3.25 5.853l-1.22 3.471a10.06 10.06 0 01-2.505 4.152l-.135.136v.068c.135 0 .27-.068.406-.068l3.928-.817c2.166-.34 4.198-1.225 5.959-2.518 1.828-1.293 3.25-3.063 4.266-5.036.27-.545.474-1.09.677-1.634.136-.136.068-.136 0-.068zm2.573-10.208a12.116 12.116 0 01-3.115 4.9c-1.625 1.565-3.115 3.335-4.469 5.104 0 .068-.136 0-.068-.068.542-1.837.677-3.811.406-5.785-.27-1.633-.947-3.403-1.15-5.376l-.068-.068c0 .068-.068.136-.068.204a19.46 19.46 0 00-.813 3.947c-.067 1.633.204 3.743.068 5.377-.135 1.905-.27 3.879-1.151 5.58v.136l4.063-2.518a15.282 15.282 0 004.266-4.083c1.49-2.11 2.235-4.56 2.235-7.146v-.272c-.068 0-.136.068-.136.068z" fill="#009EDB"/><path d="M69.337 33.395c.068 0 .068 0 0 0 0 .068 0 0 0 0 0-.544 0-1.089-.067-1.633-.136-1.906-1.287-3.471-2.303-5.105a25.328 25.328 0 01-1.828-3.266s-.068-.068-.135-.068c0 .136 0 .748.067 1.088a33.289 33.289 0 002.032 8.031c.61 1.634.812 3.335.677 5.036 0 .137 0 .137.068.205.61-.885 1.828-2.11 2.573-3.063.745-.953 4.808-5.58 2.844-11.978-.068-.272-.203-.544-.339-.817l-.067.068c0 4.628-2.235 6.602-3.115 9.733-.204.748-.339 1.293-.407 1.77zm.068-9.528L69 22.778l-.271-.612a9.446 9.446 0 00-2.776-3.131c-.948-.817-1.761-1.701-2.438-2.722h-.203c.067.204.677 2.246 1.083 3.198.677 1.294 1.49 2.587 2.438 3.675l.203.273a18.277 18.277 0 012.641 5.104c0 .068.068.068.068.068l1.15-3.539a34.954 34.954 0 001.017-3.811c.406-3.063-.542-6.942-2.303-9.12 0 0-.068.068-.068.136l.068.273.136.408c.338 1.633.406 3.403.067 5.036-.27 1.293-.338 2.654-.338 4.015 0 .205.135 1.906.135 1.974 0 .068-.068 0-.135 0l-.068-.136zM63.988 6.785c.541.544 1.016 1.157 1.286 1.905.474 1.157.61 2.859.948 4.152l.61 2.246c0 .068-.068.136-.136.068a13.32 13.32 0 00-3.656-3.063c-.948-.544-1.693-1.293-2.37-2.11l-.339-.476s-.068-.068-.135 0v.204c.338 1.498 1.015 2.927 2.099 4.084.88.816 1.828 1.565 2.709 2.314 1.15.952 2.234 2.11 3.25 3.266 0 0 .068.068.068 0v-1.089l.067-3.266v-1.09a9.014 9.014 0 00-.61-3.266 7.573 7.573 0 00-3.52-3.88c-.068-.067-.204-.067-.339-.135 0 0 0 .068.068.136zm-6.975-3.199c.948.885 1.76 1.906 2.505 2.995.678 1.088 1.422 2.041 2.37 2.926.61.613 2.438 2.042 2.912 2.45-.067-.544-.948-4.424-3.318-6.33a12.063 12.063 0 00-4.672-2.313v.136l.203.136zM19.09 56.603c1.558-.137 3.183-.409 4.673-.885l3.657-.885h.067s0-.068-.067-.068h-.068c-1.829-.476-3.522-1.361-5.011-2.586l-3.183-3.063-2.912-2.518v.136c.271.409 1.287 2.654 1.896 3.88a6.935 6.935 0 003.792 3.675c.068.068 0 .068-.135.068-1.896-.273-3.86-.409-5.824-.477-1.49 0-3.047-.272-4.469-.68a9.523 9.523 0 01-2.844-1.498h-.136c1.355 1.906 3.25 3.403 5.418 4.22 1.693.544 3.386.749 5.146.68zm-1.557-4.016c.135 0 .203.068.406.068v-.068l-.135-.136c-1.151-1.157-1.964-2.586-2.506-4.151l-1.219-3.471a19.87 19.87 0 00-3.25-5.853v.136c.406 1.497.61 2.994.745 4.56.61 4.22 2.64 6.261 2.64 6.329 0 .068 0 .136-.067.068l-.27-.204c-1.287-1.021-2.71-1.906-4.267-2.518-1.219-.545-2.37-1.157-3.454-1.906a14.303 14.303 0 01-3.385-2.994h-.068c.203.544.406 1.089.677 1.633 1.016 1.974 2.506 3.743 4.334 5.036 1.76 1.361 3.792 2.246 5.959 2.518 1.287.34 2.573.681 3.86.953zM6.63 43.74l4.063 2.518s.068-.068.068-.136c-.88-1.77-1.016-3.675-1.151-5.58-.136-1.702.135-3.744.068-5.377a20.105 20.105 0 00-.813-4.016c0-.068-.068-.136-.068-.204l-.067.068c-.136 1.974-.88 3.743-1.152 5.377a13.98 13.98 0 00.407 5.784c.067.069-.068.137-.068.069a40.12 40.12 0 00-4.47-5.105C2.028 35.778.944 34.144.335 32.306c0 0-.068-.068-.136-.068-.067 0 0 .136 0 .272 0 2.519.745 5.037 2.235 7.146A15.06 15.06 0 006.63 43.74zm-.745-5.99c.068-.067.068-.067.068-.203-.135-1.702.068-3.471.745-5.037a39.867 39.867 0 002.032-8.03c0-.34.067-.953.067-1.09-.067 0-.067 0-.067.069a25.33 25.33 0 01-1.829 3.267c-1.083 1.497-2.167 3.13-2.302 5.036a6.593 6.593 0 000 1.633s0 .068-.068.068v-.068l-.474-1.633C3.11 28.632.943 26.657.943 22.029l-.068-.067c-.135.272-.203.544-.338.816-1.964 6.398 2.031 11.025 2.844 11.978.813.953 1.896 2.11 2.506 2.995zM3.042 25.025l1.152 3.539s.067 0 .067-.068c.61-1.838 1.558-3.539 2.641-5.104l.203-.272a21.598 21.598 0 002.438-3.676c.407-.952 1.016-2.994 1.084-3.198h-.203c-.678 1.02-1.49 1.905-2.438 2.722-1.151.817-2.167 1.906-2.844 3.199-.068.204-.204.408-.271.612l-.407 1.157s-.067.136-.067 0 .135-1.701.135-1.973c0-1.362-.135-2.723-.406-4.016-.339-1.701-.271-3.403.068-5.036 0-.136.067-.272.135-.408 0-.069.068-.205.068-.273 0-.068 0-.068-.068-.136-1.76 2.178-2.776 6.125-2.37 9.12.338 1.293.677 2.586 1.083 3.811zm2.438-9.936l.068 3.267v1.02h.068c.948-1.225 2.031-2.314 3.182-3.334l2.709-2.314c1.084-1.157 1.76-2.587 2.1-4.084V9.44h-.068l-.34.476a8.543 8.543 0 01-2.301 2.11c-1.626 1.021-2.71 1.77-3.657 3.063-.068.068-.136.068-.068-.068l.61-2.246c.338-1.293.474-2.995.948-4.152.27-.68.745-1.36 1.286-1.905V6.58c-.135 0-.203.068-.338.136a7.792 7.792 0 00-3.59 3.947c-.406 1.02-.677 2.11-.609 3.267v1.157zm3.59-3.199l2.979-2.45c.88-.885 1.693-1.838 2.37-2.926.677-1.09 1.557-2.11 2.505-2.995l.204-.204v-.136c-1.693.408-3.319 1.157-4.673 2.314-2.505 1.973-3.318 5.853-3.386 6.397zm27.22 21.097c.204-.273-.27-.477-.406 0-.135.476.203.34.407 0zm5.147-11.978c-.203-.068-.948.816-.813.953.339-.205.61-.545.813-.953zm.135-.136c.136.068.61-.205.542-.273-.068-.068-.677-.34-.677-.204 0 .272.068.409.135.477zm9.142 8.439c.271-.068.203-.477 0-.477s-.474.34-.406.34c.068 0 .27.205.406.137zm-3.318-9.052c-.203 0-.27.204-.068.34.203.068.339 0 .474-.068a.46.46 0 00.271-.408c0-.204-.27-.476-.135-.613.135-.136.338.069.474 0a.374.374 0 00.203-.34c0-.136-.068-.544-.339-.544-.27 0-.541.544-.541.544a.584.584 0 000 .477c.067.272 0 .612-.339.612zm4.47.068c0 .137.339 1.021.407 1.225.067.205.135.953.27.885.136-.068.136-.476.068-.68a8.824 8.824 0 00-.338-1.43c-.068-.272-.542-1.293-.678-1.225-.135.068.204.68.271.953.068.272-.067.136 0 .272zm-2.37-11.57c.203.069.203-.34-.135-.612-.339-.272-.88-.136-.745 0 .27.204.542.477.88.613zM39.34 5.833c-.474-.272-.068-.68-.407-.953-.406-.136-.812-.068-1.083.205-.339.408.406.272.61.408.203.136.88.612.947.544.068-.068 0-.204-.067-.204zm2.708-1.36c-.609-.273-2.844-.273-2.776.34.068.612 1.287 0 1.625 0 .339 0 1.693-.069 1.151-.34zm-6.162 26.27c-.135-.069-.338.067-.406-.069s-.203-.068-.203 0-.068.204.067.34a.41.41 0 00.542 0 .208.208 0 000-.272zm-1.286-4.56c.203 0 .203-.137.27-.137.068 0 0 .136.204.136.203 0 .406-.476-.204-.476-.474 0-.406.476-.27.476zm.812.544c-.338-.068-.27.136-.542.136-.406.068-.067-.272-.203-.409-.067-.067-.27.273-.338.477 0 .136 0 .408.135.476l1.287.136c.27 0 0-.748-.339-.816zm-4.198 4.424c.135 0 .203-.409.135-.613-.068-.204-.474-.068-.474.068s.271.544.339.544zm-5.418 0c0-.137 0-.681-.135-.817-.136-.136-.136.068-.203.068-.068 0-.068-.272-.136-.272-.067 0 0 .408.136.68.135.272.338.68.338.34zm-.135-1.226c.135-.408.203-.816.203-1.225 0-.34-.203-.612-.27-.612-.069 0 0 .204.067.544 0 .34-.136.68-.203 1.021 0 .068.135.409.203.272z" fill="#009EDB"/><path d="M18.753 45.17a25.617 25.617 0 0036.431 0c10.09-10.141 10.09-26.475 0-36.615a25.617 25.617 0 00-36.431 0c-10.09 10.14-10.09 26.542 0 36.614zM12.32 27.405h3.927a21.701 21.701 0 001.016 5.921c-.203-.068-.406-.136-.61-.272-.27-.136-.473.068-.541.068-.271 0-.61-.204-.61 0s.271.068.271.204c0 .137-.677.137-.745-.136-.067-.272-.203-.544-.27-.204-.068.34-.34.272-.475.34a.521.521 0 00-.135.34c0 .137-.339.069-.339.273 0 .204.204.272.271.476.068.205.271.34.136.409-.136.068-.068-.068-.203 0-.136.068.609 2.11.744 2.041.136-.068-.203-.68-.203-.953 0-.272.068-.34.271-.476.203-.136.745.817.948.68.203-.135-.067-.271.136-.34.203-.068.812.885 1.015.613.136-.204.271.136.271.204.203.34.542.34.745.749.203.408.677 1.157 1.016 1.157.338 0 .135-.34.27-.34.136 0 .272.476.475.748.135.204.338.34.61.408.473.613 1.015 1.225 1.557 1.838l-2.777 2.79c-4.266-4.355-6.704-10.276-6.771-16.538zm22.414-5.648l-.27.136c-.407.204-.746.408-1.017.68l-2.776-2.79c1.625-1.43 3.657-2.314 5.756-2.382v3.947c-.474.068-.948.136-1.422.34a2.54 2.54 0 01.406-.544s-.474.272-.677.613zm-2.1 6.465s0 .068 0 0v.136c0-.136-.067-.204-.135-.34-.067-.068-.135-.136-.203-.136h-.338l-.136.068h-.948c-.135 0-.203 0-.203-.068-.068-.272.338-.068.61-.885.067-.068.067-.204.135-.272l.068-.136.067-.068.068-.068c.135-.137.27-.137.406-.137h.136l.135.137.203.408c.068.068.136.068.136.136a.926.926 0 01.27.204l.068.068v.068c.068.068.068.068.136.068h.271c.135-.068.135 0 .203 0v.069c0 .067 0 .067-.068.136 0 .068-.068.068-.068.136-.067.068-.135.136-.203.136-.135 0-.27-.068-.338-.068s-.136 0-.136.068v.34h-.135zm-7.313 6.534c-.203-.34-.27-.817-.27-1.225 0-.409-.136-.817-.34-1.157-.067-.273-.135-.545-.135-.817 0-.477-.406-.34-.406-.477 0-.136.339 0 .339-.136s-.407-.68-.745-.816c-.339-.136-.203-.34-.203-.545 0-.204 0-.408-.136-.544-.067-.272 0-.749.339-.749.135 0 .338.136.541 0 .204-.136.068-.544.068-.885h1.896c0 .273.068.613.068.885-.135.068-.203.204-.135.272.067.068.135.137.203.068a10.551 10.551 0 002.573 5.309l-2.776 2.79c-.204-.204-.407-.476-.61-.748v-.205c0-.476-.338-.748-.474-1.157l.203.137zm-2.64-4.764c-.204-.817-.271-1.702-.34-2.587h1.626c-.136.205-.474.409-.542.613-.067.204-.474.885-.203 1.157.61.68-.135.953-.542.817zm.338 10.072l-.339.34-.474-.476c.271-.136.542-.068.813.136zm4.198-17.49c-.067 0-.067.067-.135.067-.203.205-.745.137-.677.34.067.205 1.49-.476 1.49-.34 0 .137-.61.34-1.016.545-.407.204-.542.544-1.22.544-.338 0-.473.273-.609.477a5.088 5.088 0 00-.474.816c0 .409-.067.817-.27 1.225h-1.964a14.751 14.751 0 013.86-9.391l2.776 2.79c-.677.953-1.287 1.905-1.76 2.926zm2.574-2.042l2.437 2.45h-.27c-.271 0-.271-.204-.474-.204-.407.068-.475.204-.542.136-.271-.273-.61-.477-1.016-.68-.474-.137-.948-.137-1.354.067-.068 0-.068.068-.136.068.474-.612.948-1.225 1.355-1.837zM26.405 25.5c0 .272-.068.544-.068.816h-1.422c-.068-.204 0-.408.135-.612.136-.272.474-.408.813-.34.136 0 .339.068.542.136zm1.219 3.198l.135.205c.136.136.271.272.406.204.136-.068.474 0 .542 0 .203.068.339.204.474.34.136.204.406.068.61.204.203.136.406.272.135.409-.27.136.27.408.339.408.067 0 .135-.136.135-.34 0-.068.136-.34.339-.273.203.068.812.817 1.015.545.204-.272.068-.613.136-.749 0-.068.068-.136.135-.136.203.34.339.613.61.885l-2.777 2.79c-1.15-1.225-1.963-2.79-2.234-4.492zm2.167-9.732l-2.71-2.79a14.602 14.602 0 019.346-3.88v3.948c-2.438.068-4.74 1.02-6.636 2.722zm-3.522-3.607l-2.776-2.79a19.616 19.616 0 0112.934-5.377v3.948c-3.792.136-7.449 1.633-10.158 4.22zm-.812.749a15.863 15.863 0 00-4.199 10.208h-3.927a19.816 19.816 0 015.35-12.998l2.776 2.79zm-4.199 11.297c0 .749.068 1.43.203 2.178-.067 0-.067-.204-.27-.136-.204.068-.948 1.361-1.287 1.906-.27.476.135 1.497-.27 1.837a3.817 3.817 0 01-1.22.204h-.068c-.677-1.905-1.015-3.879-1.083-5.853l3.995-.136zm15.102 24.23c-6.162-.136-12.054-2.586-16.455-6.874l2.776-2.79c3.725 3.539 8.6 5.58 13.68 5.716v3.948zm0-5.036a19.616 19.616 0 01-12.934-5.377l.474-.476c.068.068.203.136.339.204.27.136.61.204.948.136.27-.068.813-.545 1.151-.545.339 0 .88.137 1.219-.068.339-.204-.203-.884-.406-1.225-.068-.068-.068-.136-.136-.204a15.19 15.19 0 009.48 3.607l-.135 3.947zm0-5.105a14.602 14.602 0 01-9.345-3.879l2.777-2.79c1.286 1.157 2.844 2.041 4.604 2.45-.61.272-.88.68-.812 1.02.068.34-.407.545-.407.953 0 .409.542.68.61 1.09.068.203.542.544.948.816.542.136 1.083.204 1.557.136l.068.204zm-.135-5.444c-.203-.136-.339.136-.61.272-1.896-.272-3.589-1.089-5.01-2.314l2.776-2.79c.88.68 1.896 1.157 2.98 1.225 0 .136.135.272.135.544s-.203.408-.136.545c.068.136.677 0 .745-.205.068-.204-.203-.34-.27-.544-.069-.136-.069-.204-.136-.34h.203c.203 0 .406 0 .61-.068.067 0 .135-.069.135-.136 0-.069.068-.137.068-.205 0-.068.067-.068.067-.136l.068.068c.068.136.203.545.339.477.135-.068.203-.68.135-.817a.512.512 0 010-.613c0-.068.068-.476.203-.408.136.068 0 .408 0 .545 0 .204.136.476.339.34.135-.068.27-.272.406-.204.136.068-.339.204-.406.34-.068.136.203.204.135.272-.068.068-.135 0-.203.068s.135.477 0 .545c-.135.068-.61.204-.745.272-.135.068-.27-.068-.203-.136.068-.068 0-.34-.135-.34-.136 0-.136.068-.136.204 0 .136.136.34.136.408 0 .068-.204.136-.34.204a2.064 2.064 0 01-.54.545c-.204.136-.61.136-.61.272s.203.136.27.204c.136.204.204.477-.067.613s-.61-.205-.745-.136c-.135.067-.203.408-.27.816-.069.409.744.545 1.15.34.271-.136.204-.544.474-.68.271-.136.203-.409.474-.34.271.068.204-.205.474-.205.271 0 .271.205.61.273.542.136.542.544.61.34.067-.204.135-.34-.272-.477-.406-.136-.609-.612-.27-.476.406.204.745.204.812.408.068.205.474.137.542.34.068.341.339 0 .135-.203-.203-.205-.135-.273 0-.409.136-.136.203.068.407-.204.203-.272-.068-.204-.136-.34-.067-.136 0-.885.271-.749.27.136.542-.068.406-.136-.135-.068.068-.476.136-.476s0 .272.068.34c.067.068.744-.204.812.136.068.34-.474.545-.61.545-.27 0-.473.272-.677.544-.203.272-.406.34-.27.612.135.273.406.205.677.069.27-.137.474-.34.61-.409.27-.136.473.68.338.817-.136.136-.407.204-.542.34-.406.204-.813.409-1.286.409-.271.068-.271.136-.34.408-.067.272-1.286.068-1.557.068-.27 0 .204-.613-.203-.545l-1.219.205c-.067 0-.474.34-.812.068zm3.589 6.329c.338.136.677.408.88.68.203.34.27.477.136.817-.34.613-.204 1.021.474 1.225.406.136.541.545.812.817-1.49.408-3.047.613-4.605.68v-3.947c.745-.068 1.558-.136 2.303-.272zm-2.303-.817v-.476c.88-.136.678.408 1.287.204a.525.525 0 01.542.136c-.61 0-1.22.068-1.829.136zm0 10.14v-4.015c2.032-.068 4.063-.408 6.027-1.088.068.068.136.068.203.068.271 0 .542-.137.745-.273a7.938 7.938 0 001.829-1.02c1.76-.885 3.453-2.11 4.875-3.471l2.777 2.79c-4.402 4.356-10.293 6.806-16.456 7.01zM48.48 16.11l.949-.953c.27.272.541.476.948.545.338.068.474.204.541.544.068.34.407.476.745.544.339.069.542.477.813.477.27 0 1.151 1.225 1.49 1.633.203.204.474.545.677.273.203-.273.203-.205.338-.273 1.016 2.314 1.626 4.9 1.693 7.418h-3.927c0-.884-.136-1.769-.339-2.654.136-.272.203-.544.203-.884 0-.273-.27-.409-.474-.205-.135-.544-.338-1.02-.541-1.497-.068-.272-.136-.612-.204-.885 0-.068-.135-.136-.27-.272-.136-.272-.204-.476-.34-.68.204-.137.272-.477 0-.409-.405.068-.134-.204-.27-.34-.135-.136-.135 0-.203.068-.542-.817-1.084-1.565-1.76-2.314v-.068c-.136 0-.136-.068-.069-.068zm2.37 23.071c-.135-.272-.203-.612-.338-.885-.068-.272-.61-.272-.61-.136 0 .273 0 .545-.067.817v.068l-1.422-1.429a15.863 15.863 0 004.198-10.209h3.928c-.136 4.833-2.032 9.46-5.35 12.931l-.203-.204c.068-.272 0-.612-.135-.953zm-3.25 2.723c.203-.34.61-.953.813-1.294.203-.34-.542-.816-.948-.952-.407-.136-.407-.34-.407-.68.204-.137.407-.341.61-.545l2.776 2.79a19.457 19.457 0 01-2.98 2.314c-.067-.136.407-.613.543-.817.135-.204-.542-.476-.407-.816zm1.693-16.266c-.338-.477.136-.544.61-.749.27-.136.61.068.61-.068s.135-.408.27-.476.338-.204.406-.34c0 .136.068.272.068.408-.136.272-.203.476-.203.748 0 .205 0 .477.203 0 0-.067.068-.067.068-.136.135.477.135.885.135 1.293h-2.912v-.068c.203-.34.948-.272.745-.612zm.542-5.58s0 .067-.068.067c-.068.068-.406-.476-.406-.068 0 .409.135.545.406.613.271.068.136.204.339.272a.51.51 0 01.27.136c.34.749.542 1.497.745 2.314a.926.926 0 00-.27.204c-.136.136-.068.409-.203.613-.204.34-.271.544-.813.408-.339-.136-.068-.544 0-.885.068-.34.203-.272.203-.476 0-.204-.677-.953-1.016-.68-.338.272-.27.544-.541.816-.136.136-.271.136-.474 0-.204-.136-.271-.272-.204-.408.068-.136-.474-.749-.677-1.021a1.412 1.412 0 00-1.083-.545c-.339-.612-.813-1.225-1.287-1.77l2.776-2.79c.949 1.021 1.693 2.042 2.303 3.2zm-4.673 1.905l-.135.204c-.068.136-.406-.136-.474-.068-.068.068.474.749-.068.544-.541-.204-.203-.204-.203-.408s-.474-.34-.203-.476c.27-.136 0-.34.27-.409.272-.068.204-.34-.135-.408-.338-.068-.27.749-.474.613-.203-.069-.406-.069-.61-.069l.949-.952c.135.068.203.068.338.068.136.544.474.953.745 1.36zM44.08 35.777c.406.069.88.136 1.287.273.27.136.474.408.677.068a5.386 5.386 0 00.812-2.042c.136-1.02-.067-1.361-.203-1.361-.135 0-.406.272-.677.272-.135 0-.135.272-.135.477 0 .204-.271.408-.339.272-.068-.136-.203-.068-.135.068.067.136-.542.068-.813-.068-.406-.204.474-.204.88-.545.339-.272.677-.612 1.016-.953.203-.34.203-.748.542-1.02.338-.273.88-.205.948-.613.068-.408.135-.34.338-.272s2.1-.068 2.1-.68c0-.273-.407-.613-.813-.681-.27 0-.339-.545-.474-.817a5.083 5.083 0 00-.474-.817h2.844a14.751 14.751 0 01-3.86 9.392l-.068-.068v-.272c.068-.544-.338-1.43-.473-1.293-.136.136 0 .136-.407.748-.135.205-.338.545-.61.545-.27 0-.27-.136-.676-.068a2.903 2.903 0 01-1.084 0 7.509 7.509 0 01-1.828-.885c.067-.068.27.068.27-.136 0-.204 1.084.408 1.355.476zm10.632 8.235l-2.777-2.79c3.521-3.743 5.553-8.643 5.688-13.748h3.996c-.136 6.194-2.574 12.047-6.907 16.538zm6.907-17.695h-3.996a20.344 20.344 0 00-2.031-8.439l.067-.068c.271-.272-1.286-2.314-1.557-2.518-.27-.204-.542-.544-.88-.884-.542-.545-1.084-1.157-1.49-1.77l2.912-2.926c4.401 4.491 6.84 10.412 6.975 16.605zM37.51 2.09a24.652 24.652 0 0116.523 6.874l-2.708 2.722c-.136-.068-.271-.136-.204-.272.136-.204-.203-.204-.27-.749-.136-.544-.542-1.02-1.016-1.293-.339-.204-.542-.476-.88-.612-.339-.136-1.016-.545-1.355-.409-.203.068-.474.137-.677.137a20.565 20.565 0 00-9.345-2.45L37.51 2.09zm0 5.104c2.912.069 5.689.817 8.33 2.11.067.409.27.885.541 1.225.136.34.339.613.542.953.203.204.068.613.136.953 0 .136.135.272.203.408v.545c0 .068.27.068.474-.068.203-.137.338-.409.61-.34.27.067.609.612.812.952l-1.287 1.293c-.135-.272-.27-.612-.203-.612.068 0 .203.068.27.068.272 0-.202-.204-.202-.272-.203-.205-.203-.477-.474-.681-.271-.204-.678-.068-.813-.34a3.723 3.723 0 00-1.083-1.225c-.068 0 .541.748.338.884s-.948-.476-1.016-.34c-.067.136.813.476 1.084.749.135.136.406.544.677.884-2.573-1.973-5.688-3.062-8.939-3.198V7.193zm0 5.037a14.601 14.601 0 019.345 3.879l-2.776 2.79a10.728 10.728 0 00-6.569-2.722V12.23zm0 5.104c2.167.136 4.199.953 5.756 2.382l-.135.136-.136-.068c-.338-.136-1.015.544-.88.613.136.068.406-.273.542-.205h.068l-1.152 1.225c-.338.136-.677.409-.677.613v.068l-.406.408-.203-.204a3.43 3.43 0 00-1.084-.612c.203-.137.271-.34.339-.613 0-.408-.136-.272-.339-.068-.203.204-.406.272-.541.476a3.054 3.054 0 00-1.084-.204v-3.947h-.068zm-.474 5.036c.068.136 0 .272-.067.34-.136.137-.542-.34-.61.069-.135.408.271.204.271.272.203.272.474.408.813.476.27 0 .677 0 .677.272 0 .137.338.137.406.273 0 .204.203.544.339.476.135-.068.338.068.406.204.068.136 0 .204-.068.34-.203.205.203.137.271.545.068.408-.338.136-.406.408-.136.204-.271.34-.406.545-.068.068.067.204.135.136.068-.068.203-.272.406-.272s.407.748.61.816c.203.068.135.34.203.409.068.068-.339 0-.271.136s.474.204.474.408c-.068.204-.203.408-.474.408-.203 0-.542-.476-.542-.34 0 .136.136.545.339.545s.677-.205.474.068c-.203.272-.136.68-.271.68s-.203 0-.068.204c.068.205 0 .409-.135.613-.136.136-.474 0-.474-.068s.406-.068.406-.272c0-.204-.203-.273-.61-.137-.202.069-.27-.067-.406-.067-.135 0-.541.476-.541.544v.34c0 .272-.068.477-.203.68-.271.069-.474.069-.745.069-1.084 0-2.167-.477-2.98-1.157a1.27 1.27 0 01.542-.136c.203.068.27-.068.406-.136s.474.136.677 0c.203-.137.678-1.021.61-1.225-.068-.205.474-.545.406-.613-.068-.068-.135.068-.135 0s.135-.068 0-.34c-.136-.272-.339-.136-.474-.136-.204-.136-.542-.204-.61-.136-.068.068-.27-.137-.338-.069-.068 0-.204.069-.204.205-.067.136.068.272.068.408-.068.272-.474.476-.474.68 0 .205-.203.069-.27.137-.069.068 0 .204-.136.204s-.339.34-.474.612c-.203-.272-.407-.612-.61-.884.136-.068.271-.136.339-.068.203.136 1.016-1.293.88-1.702-.135-.408-.338-.136-.541-.068-.204.068-.204-.136-.136-.204.068-.068.948-.068.474-.34-.203-.136-.745-.136-.677-.34.068-.205.339 0 .406 0 .339.136.542-.545.745-.545.339 0 .203-.68-.135-.477-.339.205-.474.137-.61.34-.135.205-.474.477-.474.205 0-.136.745-.544.88-.749.136-.136.271-.34.34-.544.067-.204 1.015-.34 1.218-.476.135-.137.27-.34.27-.545 0-.204-.27-.136-.338-.272-.067-.136.339 0 .339-.204s-.339 0-.474-.136c0-.069 0-.069.068-.137.609-.204 1.015-.272 1.49-.272h.135-.136zm-.61-20.28v3.946c-5.078.137-9.954 2.178-13.678 5.717l-2.776-2.79c4.401-4.288 10.293-6.738 16.455-6.874zM19.092 9.78l2.777 2.79c-3.522 3.743-5.553 8.643-5.688 13.747h-3.928c.203-6.193 2.64-12.114 6.84-16.537z" fill="#009EDB"/></svg>